<svg width="98" height="98" viewBox="0 0 98 98" fill="none" xmlns="http://www.w3.org/2000/svg">
<path d="M66.1514 55.4021L66.6514 49.1521H56.9014V36.6021H68.6514L68.1514 30.3521H48.7014V67.0021H68.1514L68.6514 60.7521H56.9014V55.4021H66.1514Z" fill="black"/>
<path d="M35.6985 53.0657C34.8985 54.4657 34.3985 56.0157 34.3985 57.7657C34.3985 62.8157 38.7485 66.9657 43.5485 66.9657H56.2985L56.2985 30.3157H42.0485C35.3985 30.5657 29.8485 35.9657 29.8485 42.6157C29.8485 46.6657 31.9485 50.5157 35.6985 53.0657ZM48.0985 36.5657L48.0985 48.6157H42.9485C39.7485 48.6157 37.6485 46.0157 37.6485 42.6157C37.6485 39.2157 39.4985 36.5657 42.6485 36.5657H48.0985ZM48.0985 60.7157H44.0985C42.4985 60.7157 41.6985 59.3157 41.6985 57.7657C41.6985 56.1657 42.6485 54.8657 44.0985 54.8657H48.0985V60.7157Z" fill="black"/>
<path d="M66.368 8.49167L66.188 10.7417H69.698V15.2597L65.468 15.2597L65.648 17.5097H72.65V4.31567L65.648 4.31567L65.468 6.56567L69.698 6.56567V8.49167L66.368 8.49167ZM49.6809 4.31567L52.5069 17.6177L54.6489 13.6217L56.6829 9.80567L58.9509 14.4137L60.5529 17.6897L63.3969 4.31567H61.1109L59.9049 9.98567L56.9709 4.20767L53.9289 10.2197L52.6689 4.31567H49.6809ZM44.3834 17.5097H47.3354V4.31567H44.3834V17.5097ZM38.6375 17.5097H41.5895V4.31567H34.4075L34.2275 6.56567H38.6375V17.5097ZM27.1699 17.5097L29.2759 13.8557L31.3819 17.5097H34.7839L31.1479 11.2097V4.31567H28.1959V11.1917L24.5779 17.5097H27.1699Z" fill="black"/>
<path d="M8.766 84.8121C9.054 84.3081 9.234 83.7501 9.234 83.1201C9.234 81.3021 7.668 79.8081 5.94 79.8081H1.35L1.35 93.0021H6.48C8.874 92.9121 10.872 90.9681 10.872 88.5741C10.872 87.1161 10.116 85.7301 8.766 84.8121ZM4.302 90.7521V86.4141H6.156C7.308 86.4141 8.064 87.3501 8.064 88.5741C8.064 89.7981 7.398 90.7521 6.264 90.7521H4.302ZM4.302 82.0581H5.742C6.318 82.0581 6.606 82.5621 6.606 83.1201C6.606 83.6961 6.264 84.1641 5.742 84.1641H4.302V82.0581ZM22.2161 93.0021L20.0561 87.6741C21.0821 86.8281 21.7481 85.5861 21.7481 84.2361C21.7481 81.8241 19.6961 79.8081 17.3381 79.8081H13.1801V93.0021H16.1321V88.6641H17.2841L19.0301 93.0021H22.2161ZM16.1321 82.0581H17.1401C18.3641 82.0581 18.9941 83.1561 18.9401 84.2361C18.8861 85.4781 18.2741 86.4141 17.1401 86.4141H16.1321V82.0581ZM30.3764 79.6281C26.7044 79.6281 23.6264 82.7781 23.6264 86.3781C23.6264 90.1761 26.8304 93.1281 30.3764 93.1281C34.0484 93.0381 37.1264 90.0681 37.1264 86.3781C37.1264 82.7061 33.9764 79.6281 30.3764 79.6281ZM30.3764 90.7521C28.1084 90.6081 26.7044 88.5021 26.7044 86.3781C26.7044 84.1461 28.2164 82.0041 30.3764 82.0041C32.6444 82.0041 34.0484 84.3441 34.0484 86.3781C34.0484 88.6641 32.4644 90.7521 30.3764 90.7521ZM53.3895 79.8081H50.9775L48.4035 86.1801L45.8295 79.8081L43.2555 86.1801L40.6815 79.8081H37.4955L42.8775 93.1101L45.4515 86.7381L48.0255 93.1101L53.3895 79.8081ZM62.7455 86.5401L55.4555 79.7001V93.0021H58.4075V86.5221L65.6975 93.3621V79.8081H62.7455V86.5401ZM74.8508 88.8261L75.0308 86.5761H71.5208V82.0581H75.7508L75.5708 79.8081H68.5688V93.0021H75.5708L75.7508 90.7521H71.5208V88.8261H74.8508ZM86.5339 82.0581L86.3539 79.8081H77.9119L77.7319 82.0581H80.6479V93.0021H83.5999V82.0581H86.5339ZM96.9577 82.0581L96.7777 79.8081H88.3357L88.1557 82.0581H91.0717V93.0021H94.0237V82.0581H96.9577Z" fill="black"/>
</svg>
