<svg width="30" height="37" viewBox="0 0 30 37" fill="none" xmlns="http://www.w3.org/2000/svg">
<path d="M25.429 22.1521L25.729 18.4021H19.879V10.8721H26.929L26.629 7.12206H14.959V29.1121H26.629L26.929 25.3621H19.879V22.1521H25.429Z" fill="black"/>
<path d="M6.59898 20.7528C6.11898 21.5928 5.81898 22.5228 5.81898 23.5728C5.81898 26.6028 8.42898 29.0928 11.309 29.0928H18.959L18.959 7.10278H10.409C6.41898 7.25278 3.08898 10.4928 3.08898 14.4828C3.08898 16.9128 4.34898 19.2228 6.59898 20.7528ZM14.039 10.8528L14.039 18.0828H10.949C9.02898 18.0828 7.76898 16.5228 7.76898 14.4828C7.76898 12.4428 8.87898 10.8528 10.769 10.8528H14.039ZM14.039 25.3428H11.639C10.679 25.3428 10.199 24.5028 10.199 23.5728C10.199 22.6128 10.769 21.8328 11.639 21.8328H14.039V25.3428Z" fill="black"/>
</svg>
